HIERARCHY
ROOT Hips
{
  OFFSET -213.699 104.721 0.752556
  CHANNELS 6 Xposition Yposition Zposition Zrotation Xrotation Yrotation
  JOINT RightUpLeg
  {
    OFFSET -8.9458 -8.66707 0.101652
    CHANNELS 3 Zrotation Xrotation Yrotation
    JOINT RightLeg
    {
      OFFSET 0 -44.4227 1.3727
      CHANNELS 3 Zrotation Xrotation Yrotation
      JOINT RightFoot
      {
        OFFSET 0.253549 -42.0924 -1.46059
        CHANNELS 3 Zrotation Xrotation Yrotation
        JOINT RightToes
        {
          OFFSET 0.04 -4.41509 8.4991
          CHANNELS 3 Zrotation Xrotation Yrotation
          End Site
          {
            OFFSET -0.08 -0.137448 9.77979
          }
        }
      }
    }
  }
  JOINT Spine
  {
    OFFSET 0 11.8905 0
    CHANNELS 3 Zrotation Xrotation Yrotation
    JOINT Spine1
    {
      OFFSET 0 25.6574 0.127663
      CHANNELS 3 Zrotation Xrotation Yrotation
      JOINT HEad
      {
        OFFSET 0 8.73416 0.011341
        CHANNELS 3 Zrotation Xrotation Yrotation
        End Site
        {
          OFFSET -0.29 12.7742 2.51395
        }
      }
      JOINT LeftShoulder1
      {
        OFFSET 8.99 -0.362252 -0.22
        CHANNELS 3 Zrotation Xrotation Yrotation
        JOINT LeftArm
        {
          OFFSET 10.2827 -0.00337999 0.322123
          CHANNELS 3 Zrotation Xrotation Yrotation
          JOINT LeftForeArm
          {
            OFFSET 26.2597 0.099144 -1.42434
            CHANNELS 3 Zrotation Xrotation Yrotation
            JOINT LeftHand
            {
              OFFSET 22.0902 0.085362 1.02216
              CHANNELS 3 Zrotation Xrotation Yrotation
              End Site
              {
                OFFSET 13.419 -0.6 1.50291
              }
            }
          }
        }
      }
      JOINT RightShoulder
      {
        OFFSET -8.99 -0.362252 -0.22
        CHANNELS 3 Zrotation Xrotation Yrotation
        JOINT RightArm
        {
          OFFSET -10.2827 -0.00338 0.322123
          CHANNELS 3 Zrotation Xrotation Yrotation
          JOINT RightForeArm
          {
            OFFSET -26.364 0.099144 -1.42434
            CHANNELS 3 Zrotation Xrotation Yrotation
            JOINT RightHand
            {
              OFFSET -22.0324 0.085362 1.02216
              CHANNELS 3 Zrotation Xrotation Yrotation
              End Site
              {
                OFFSET -13.3284 -0.6 1.50291
              }
            }
          }
        }
      }
    }
  }
  JOINT LeftUpLeg
  {
    OFFSET 8.9458 -8.66707 0.101652
    CHANNELS 3 Zrotation Xrotation Yrotation
    JOINT LeftLeg
    {
      OFFSET 0 -44.4227 1.3727
      CHANNELS 3 Zrotation Xrotation Yrotation
      JOINT LeftFoot
      {
        OFFSET -0.253549 -42.0924 -1.46059
        CHANNELS 3 Zrotation Xrotation Yrotation
        JOINT LeftToes
        {
          OFFSET -0.04 -4.41509 8.4991
          CHANNELS 3 Zrotation Xrotation Yrotation
          End Site
          {
            OFFSET 0.08 -0.047448 9.77979
          }
        }
      }
    }
  }
}
MOTION
Frames:	21
Frame Time:	0.0333333
-80.0729 115.203 110.954 0.975886 0.623335 85.9598 -1.22183 -2.36136 -0.344375 -0.617609 49.7264 -1.93931 9.35022 -0.802974 -0.692271 0.0462048 0.000530889 0.662642 -1.31705 13.7364 1.48013 -1.92932 1.93882 2.14799 0.0726088 5.53606 -1.89904 -31.8956 -3.76529 13.4072 -74.1237 -44.2092 -34.317 -173.579 62.5739 173.93 9.44793 8.92297 -7.69563 28.0611 0.277352 -3.32766 54.2296 -11.0251 26.4698 4.89165 59.6417 11.7852 -2.56883 9.79406 1.31427 -4.03889 -35.4555 7.58544 1.06078 47.3389 11.7096 6.43002 -26.1676 1.22963 -1.3105e-009 8.75234e-006 -1.47132e-008 
-77.8038 116.713 111.181 0.779477 0.532214 87.3095 -0.741124 -7.20014 0.692113 -0.717322 56.5079 -1.80363 7.21547 1.83293 -0.717109 0.0462048 0.000530889 0.662642 -2.38046 13.877 1.34847 -1.48135 2.02234 1.7324 0.0673331 5.98123 -2.06282 -31.6392 -3.64614 13.1596 -73.4073 -42.8574 -33.9474 -172.885 64.8234 171.724 9.47229 8.88439 -8.17873 28.084 0.206927 -3.53345 53.0309 -8.04655 26.0738 3.80178 56.5638 13.5027 -2.6103 9.78889 1.5122 -4.64442 -32.3508 6.32632 0.975458 44.2801 11.0154 5.54533 -26.1818 1.08151 -1.3105e-009 8.75234e-006 -1.47132e-008 
-75.5829 118.278 111.421 0.616551 0.246389 89.1392 0.264452 -11.4185 1.77799 -0.849669 60.7663 -2.68584 5.73839 -0.709089 -0.476917 0.0462048 0.000530889 0.662642 -3.06974 14.0168 1.05557 -0.76364 1.95484 1.14719 0.175252 6.56697 -2.40902 -31.3171 -3.46762 12.7668 -73.5113 -41.8694 -34.1387 -172.167 66.3342 170.229 9.45632 8.85587 -8.58843 28.2898 0.0717341 -3.9264 51.7327 -5.55201 25.529 2.92318 53.1985 14.9307 -2.67838 9.78152 1.74237 -4.9254 -29.0629 4.85794 0.885771 40.7374 10.1328 4.72767 -25.7879 0.923369 -1.3105e-009 8.75234e-006 -1.47132e-008 
-73.3986 119.82 111.664 0.444501 -0.386953 90.8779 1.41638 -15.572 3.06507 -1.08852 62.7965 -4.49914 4.66142 -4.38763 -0.283475 0.0462048 0.000530889 0.662642 -3.39361 14.0732 0.767303 -0.197849 1.80163 0.64564 0.545972 7.37226 -2.82993 -30.8623 -3.26502 12.3341 -74.1839 -41.039 -34.7185 -171.838 66.9118 169.611 9.42206 8.84974 -8.72775 28.5502 -0.0446449 -4.25948 51.129 -4.91695 24.9068 2.44579 51.4996 15.6032 -2.72039 9.77573 1.95889 -4.85733 -25.6575 3.4605 0.80106 36.7597 9.24012 4.09998 -25.111 0.789178 -1.3105e-009 8.75234e-006 -1.47132e-008 
-71.2553 121.223 111.906 0.330605 -0.793765 92.4081 2.51588 -19.8658 4.95768 -1.26416 63.2861 -6.5361 3.55033 -6.80427 -0.192626 0.0462048 0.000530889 0.662642 -3.63877 14.141 0.558677 0.193867 1.64555 0.269539 0.99674 8.1209 -3.14009 -30.4559 -3.10921 12.0067 -74.7227 -40.0852 -35.4129 -171.613 67.2656 169.031 9.34677 8.86204 -8.68629 28.7499 -0.118904 -4.46838 51.009 -5.57107 24.4396 2.34611 51.5865 15.6296 -2.72471 9.77506 1.9854 -4.67221 -22.2242 1.99863 0.739442 32.6813 8.72632 3.52979 -24.3728 0.669674 -1.3105e-009 8.75234e-006 -1.47132e-008 
-69.148 122.425 112.144 0.379981 -1.26087 93.9009 3.60033 -24.0338 7.39005 -1.3516 62.67 -8.00571 2.64054 -8.71636 -0.153581 0.0462048 0.000530889 0.662642 -3.83777 14.3538 0.362846 0.662442 1.50603 -0.100099 1.21072 8.71912 -3.32474 -30.1957 -2.98145 11.7158 -75.0875 -39.0805 -36.1813 -171.328 67.6741 168.3 9.23183 8.87215 -8.74188 28.8712 -0.191341 -4.67223 50.8145 -6.45605 24.2149 2.58416 52.4529 15.255 -2.68196 9.77993 1.83598 -4.51072 -18.8121 -0.0847335 0.705107 28.7975 9.00499 2.87687 -23.641 0.54652 -1.3105e-009 8.75234e-006 -1.47132e-008 
-67.0471 123.368 112.405 0.599697 -1.72679 95.591 4.56756 -27.9377 10.1102 -1.32317 61.1173 -8.51651 2.47974 -10.8264 -0.122217 0.0462048 0.000530889 0.662642 -3.99715 14.7014 0.173426 1.24108 1.34448 -0.477839 1.17444 9.29038 -3.44857 -29.8989 -2.81082 11.3095 -75.8075 -38.2213 -37.1041 -171.258 67.7621 168.054 9.19183 8.86261 -8.94218 28.9877 -0.282816 -4.92916 50.3839 -7.45187 24.1246 3.15456 53.6225 14.5345 -2.58503 9.78743 1.73042 -4.28708 -15.5573 -2.40808 0.877877 25.4146 9.50893 2.1247 -23.0731 0.422726 -1.3105e-009 8.75234e-006 -1.47132e-008 
-64.8956 124.021 112.714 0.911554 -2.09611 97.3322 5.26716 -31.6323 13.1001 -1.19779 58.8761 -7.99034 2.62916 -12.5041 -0.0914603 0.0462048 0.000530889 0.662642 -4.238 15.0531 0.0535965 1.73125 1.15087 -0.756711 1.17131 9.77686 -3.5312 -29.446 -2.61319 10.8531 -77.0873 -37.4509 -38.287 -171.588 67.2831 168.584 9.29877 8.84325 -9.02547 29.1495 -0.35438 -5.12594 49.787 -8.66844 24.0922 4.03512 55.1046 13.469 -2.44994 9.79613 1.6962 -3.90109 -12.6136 -3.17707 1.51339 22.7813 8.44989 1.41682 -22.9395 0.321439 -1.3105e-009 8.75234e-006 -1.47132e-008 
-62.6654 124.428 113.061 1.26282 -2.28964 99.0232 5.65179 -35.0215 16.4683 -1.03152 56.1182 -6.87435 2.51265 -13.4837 -0.0807879 0.0462048 0.000530889 0.662642 -4.58355 15.327 -0.0306665 2.03579 0.987216 -0.9413 1.36468 10.0117 -3.6018 -29.0646 -2.48121 10.5573 -78.6259 -36.622 -39.8643 -172.184 66.3168 169.609 9.44304 8.84068 -8.81597 29.3191 -0.371487 -5.16666 49.1311 -9.94811 24.186 5.16428 56.9165 12.1258 -2.29276 9.80743 1.54164 -3.32672 -9.99867 -2.32081 2.16259 20.9148 5.85089 0.923133 -23.2912 0.258862 -1.3105e-009 8.75234e-006 -1.47132e-008 
-60.365 124.632 113.422 1.6583 -2.31155 100.887 5.50611 -37.932 19.8616 -0.881282 52.8523 -5.8087 2.53399 -14.0454 -0.0704549 0.0462048 0.000530889 0.662642 -4.93321 15.5612 -0.205259 2.22214 0.840516 -1.17347 1.61939 10.1128 -3.78301 -29.0067 -2.431 10.4258 -80.2501 -35.8348 -41.8481 -172.908 64.8877 171.026 9.47938 8.86379 -8.44387 29.4634 -0.380498 -5.18528 48.6814 -11.4862 24.494 6.44784 59.1348 10.5468 -2.13732 9.81928 1.28125 -2.68674 -7.70027 -1.23266 2.53394 19.8079 2.89902 0.565267 -24.0302 0.21694 -1.3105e-009 8.75234e-006 -1.47132e-008 
-57.9849 124.651 113.779 2.11503 -2.21115 103.102 4.60415 -40.2942 22.6592 -0.768598 49.2612 -4.96852 2.87827 -14.0831 -0.050558 0.0462048 0.000530889 0.662642 -5.11447 15.8691 -0.490807 2.33381 0.550958 -1.47281 1.72267 10.39 -4.20106 -29.1627 -2.3774 10.2442 -82.1962 -35.3087 -43.9844 -173.585 62.9928 172.897 9.40826 8.89966 -8.0734 29.5998 -0.454755 -5.38697 48.6099 -13.5952 24.8974 7.66839 61.5087 8.89867 -2.04776 9.82543 1.17104 -2.10426 -5.70246 -0.594342 2.86604 19.4456 0.0695716 0.125941 -25.1208 0.160031 -1.3105e-009 8.75234e-006 -1.47132e-008 
-55.496 124.54 114.12 2.63915 -2.09292 105.424 3.30889 -42.0951 24.958 -0.679576 45.9108 -4.21528 2.8299 -13.7319 -0.059425 0.0462048 0.000530889 0.662642 -4.93332 16.3035 -0.739223 2.35002 0.0266704 -1.67076 1.53515 10.9441 -4.75743 -29.2692 -2.2815 9.95357 -84.5782 -35.0732 -45.8409 -173.952 60.94 174.947 9.31683 8.93849 -7.68736 29.6845 -0.561639 -5.68166 48.4983 -15.6241 25.0336 8.32861 63.0363 7.8412 -2.07401 9.82296 1.27527 -1.50217 -3.88664 -0.364721 3.30317 19.632 -2.39844 -0.273652 -26.449 0.102593 -1.3105e-009 8.75234e-006 -1.47132e-008 
-52.8639 124.348 114.462 3.23179 -2.04865 107.566 2.31088 -43.4305 27.229 -0.628694 43.6358 -3.80206 2.23179 -13.762 -0.091951 0.0462048 0.000530889 0.662642 -4.42864 16.7316 -0.869356 2.37177 -0.593463 -1.70876 0.933056 11.6546 -5.05787 -29.3009 -2.21657 9.76492 -86.8981 -35.0244 -46.9904 -173.961 59.3032 176.629 9.27672 8.97241 -7.2822 29.6366 -0.58708 -5.75556 47.6922 -16.4285 24.6947 8.15691 62.9715 7.93078 -2.18056 9.81567 1.39206 -0.701578 -2.14147 -0.374505 3.76447 20.1885 -4.34086 -0.372959 -27.8809 0.0903969 -1.3105e-009 8.75234e-006 -1.47132e-008 
-50.0453 124.116 114.859 3.85395 -2.07113 109.697 1.73 -44.5223 28.7512 -0.636078 43.1974 -3.93043 1.84947 -14.2948 -0.106776 0.0462048 0.000530889 0.662642 -3.95705 16.9518 -0.983068 2.68661 -1.06944 -1.79218 -0.0546296 12.4116 -4.73928 -29.3579 -2.22917 9.79048 -88.3494 -35.1368 -47.1315 -173.84 58.6264 177.475 9.33269 8.98389 -7.03953 29.5457 -0.526518 -5.59142 46.2089 -15.8395 24.2492 7.68091 61.8005 8.66419 -2.30901 9.80763 1.44014 0.431788 -0.497515 -0.685427 4.12873 21.0486 -6.04751 -0.618565 -29.3471 0.0446354 -1.3105e-009 8.75234e-006 -1.47132e-008 
-47.0201 123.937 115.364 4.42644 -2.06548 112.147 1.19716 -45.4314 28.1481 -0.64793 44.8462 -3.92335 1.93824 -14.5451 -0.0991211 0.0462048 0.000530889 0.662642 -3.82391 16.9526 -1.13079 3.4296 -1.26684 -2.07824 -0.983408 13.12 -3.93787 -29.3729 -2.2471 9.83834 -88.5059 -35.4034 -46.2417 -173.771 59.1789 177.305 9.44915 8.96502 -7.12451 29.6361 -0.518529 -5.56364 44.7848 -14.9115 24.2275 7.47256 60.652 9.16739 -2.46373 9.79704 1.55621 1.96836 0.966395 -1.50953 4.22798 22.0785 -7.96284 -1.90078 -30.4628 -0.223103 -1.3105e-009 8.75234e-006 -1.47132e-008 
-43.7842 123.966 116.005 4.92156 -1.96334 114.801 0.85747 -45.7777 25.8794 -0.651675 48.0239 -3.31556 1.90512 -14.4044 -0.10226 0.0462048 0.000530889 0.662642 -3.92707 16.8585 -1.17936 4.2617 -1.21885 -2.38043 -1.23002 13.6577 -3.23844 -29.2745 -2.21932 9.77728 -87.5709 -35.7533 -44.7117 -173.703 60.5736 176.334 9.52543 8.93164 -7.46164 29.9565 -0.625391 -5.84188 44.2665 -14.9396 24.6112 7.67914 60.5149 8.98827 -2.66605 9.78201 1.76008 3.95074 2.33041 -2.6583 3.92907 22.989 -10.1633 -4.19935 -30.4311 -0.700746 -1.3105e-009 8.75234e-006 -1.47132e-008 
-40.3032 124.322 116.788 5.39634 -1.84135 117.204 1.58585 -45.0827 24.3069 -0.70615 51.572 -3.07089 1.40402 -14.9491 -0.130091 0.0462048 0.000530889 0.662642 -3.89319 16.6446 -1.04028 4.66698 -1.01511 -2.40724 -0.668734 13.9741 -3.01642 -29.2548 -2.2308 9.81307 -86.0085 -36.2569 -43.1624 -173.604 61.7992 175.201 9.55711 8.90041 -7.83076 30.3386 -0.719667 -6.07716 45.0339 -16.2913 25.0319 8.35828 61.8961 7.96718 -2.85905 9.76859 1.85771 6.3875 3.85743 -3.42357 3.46393 23.354 -12.5952 -6.85689 -28.8142 -1.16069 -1.3105e-009 8.75234e-006 -1.47132e-008 
-36.5858 125.01 117.684 5.85349 -1.82541 119.234 3.68091 -43.3441 24.7372 -0.847074 54.4568 -4.45793 0.77667 -16.9104 -0.169647 0.0462048 0.000530889 0.662642 -3.49248 16.1888 -0.869783 4.53052 -0.677664 -2.19654 0.113506 14.1137 -3.03638 -29.4999 -2.35571 10.1202 -84.2436 -37.2102 -42.0092 -173.586 62.1887 174.642 9.62825 8.87579 -8.04838 30.6632 -0.679543 -5.94547 46.8301 -18.2192 25.4775 9.80399 64.5219 5.91517 -2.94824 9.76529 1.7219 9.11127 5.59073 -3.89852 3.14829 22.959 -14.8782 -10.1203 -25.9794 -1.53719 -1.3105e-009 8.75234e-006 -1.47132e-008 
-32.8119 125.928 118.625 6.12852 -1.84976 121.381 5.99329 -41.1072 25.8339 -1.07038 56.2935 -7.43419 0.181988 -19.4747 -0.232269 0.0462048 0.000530889 0.662642 -2.89222 15.5622 -0.905712 4.15159 -0.21835 -2.07592 0.409987 14.0926 -2.87058 -29.8089 -2.49569 10.454 -82.8042 -38.7722 -41.3285 -173.594 62.0025 174.924 9.69545 8.87329 -7.97845 30.8763 -0.574088 -5.64568 49.0338 -19.4441 26.1938 12.0251 67.1247 3.11981 -2.91512 9.77199 1.4374 11.6683 6.77063 -6.1233 2.48876 22.7401 -14.8445 -14.1015 -22.1776 -1.719 -1.3105e-009 8.75234e-006 -1.47132e-008 
-29.2141 127.035 119.543 6.0583 -1.66653 124.257 7.08016 -38.8538 25.4807 -1.30512 57.0719 -10.8253 -0.867708 -21.3971 -0.372117 0.0462048 0.000530889 0.662642 -2.5256 15.0226 -1.187 3.80153 0.184836 -2.23407 -0.0106592 13.8659 -2.44628 -29.8908 -2.5174 10.4984 -82.2123 -40.6169 -41.0882 -173.521 61.6061 175.856 9.62025 8.91325 -7.56358 30.8106 -0.534477 -5.54225 50.8614 -18.9857 26.9956 13.6171 68.1922 1.37508 -2.81918 9.7817 1.1787 13.3809 6.11724 -10.6981 0.989928 24.6118 -10.4497 -16.3745 -16.5177 -1.21574 -1.3105e-009 8.75234e-006 -1.47132e-008 
-25.8804 128.346 120.4 5.72819 -1.21208 127.953 6.72969 -36.5554 23.1512 -1.47766 56.8251 -13.6875 -2.35285 -22.492 -0.586453 0.0462048 0.000530889 0.662642 -2.54166 14.77 -1.54062 3.6001 0.274985 -2.54193 -0.895404 13.4827 -1.96012 -29.8702 -2.47681 10.3899 -82.3737 -42.1037 -41.203 -173.463 60.7901 177.025 9.45946 8.97271 -7.00586 30.3796 -0.563477 -5.64581 51.4908 -16.6776 27.3622 12.8872 67.0512 2.5765 -2.72479 9.78778 1.13108 13.6373 3.30262 -12.9306 0.0838483 29.2356 -4.6647 -13.7079 -8.70385 -0.13906 -1.3105e-009 8.75234e-006 -1.47132e-008 
